<svg width="183" height="76" viewBox="0 0 183 76" fill="none" xmlns="http://www.w3.org/2000/svg">
<path d="M62.6353 13.0686C61.6405 11.9644 60.3862 11.1101 58.9803 10.573C57.4792 9.97347 55.6774 9.6812 53.5595 9.6812C48.6167 9.6812 46.2469 11.225 44.9386 12.1218C43.8025 11.2725 42.5071 10.6455 41.1243 10.2782C39.505 9.84607 37.8317 9.64622 36.1558 9.6787C35.7497 9.6787 35.2536 9.69369 34.6702 9.72616C34.0867 9.75864 33.4981 9.79111 32.9069 9.82858C32.3081 9.86106 31.758 9.90852 31.2465 9.97847C30.2467 10.0609 29.2699 10.3132 28.3601 10.7254C27.9359 10.9202 27.5735 11.2225 27.3088 11.6022C27.062 11.9719 26.8975 12.3866 26.8256 12.8213C26.7382 13.3484 26.6945 13.8805 26.6996 14.4125V35.5912C26.6996 35.9534 26.7767 36.1832 26.931 36.2857C27.1597 36.4031 27.4167 36.4555 27.6738 36.4356H31.6603C31.9277 36.4605 32.195 36.4081 32.4289 36.2857C32.5677 36.1832 32.6371 35.9534 32.6371 35.5912V14.9646C32.8735 14.9321 33.1691 14.8897 33.5341 14.8422C33.8914 14.7948 34.2589 14.7623 34.6342 14.7473C35.0069 14.7248 35.3642 14.7148 35.706 14.6948C36.0479 14.6798 36.3229 14.6723 36.526 14.6723C37.6055 14.6274 38.685 14.8147 39.6823 15.2219C40.5177 15.5367 41.2451 16.0713 41.7823 16.7657C42.2963 17.4802 42.6433 18.2946 42.8001 19.1539C42.998 20.1906 43.0906 21.2423 43.0803 22.2965V35.6012C43.0803 35.9634 43.1574 36.1932 43.3065 36.2957C43.5326 36.4131 43.7871 36.4655 44.0441 36.4455H47.9973C48.2697 36.468 48.5396 36.4156 48.7838 36.2957C48.938 36.1932 49.0151 35.9634 49.0151 35.6012V22.3889C49.0203 21.2223 48.9509 20.0582 48.8069 18.8991C48.6887 17.9598 48.4497 17.038 48.0924 16.1587C48.6759 15.7041 50.0818 14.7098 52.7807 14.7098C55.243 14.7098 56.9729 15.3593 57.9701 16.6558C58.9648 17.9498 59.4609 19.9408 59.4609 22.6337V35.5962C59.4609 35.9584 59.538 36.1882 59.6922 36.2907C59.921 36.4081 60.178 36.4605 60.4351 36.4406H64.3702C64.6427 36.463 64.9177 36.4106 65.1619 36.2907C65.3161 36.1882 65.3932 35.9584 65.3932 35.5962V21.8918C65.4086 20.2181 65.185 18.5494 64.7275 16.9331C64.324 15.5167 63.612 14.2002 62.643 13.0711L62.6353 13.0686Z" fill="white"></path>
<path d="M12.2239 9.30148C10.5404 9.28399 8.86968 9.59625 7.31463 10.2208C5.8367 10.8228 4.51555 11.7446 3.45658 12.9137C2.33078 14.1827 1.46973 15.6566 0.927388 17.2478C0.284808 19.1339 -0.0287708 21.1124 0.00207299 23.1008C0.00207299 27.7872 1.09189 31.5843 3.27666 33.7501C5.45886 35.9084 8.61264 36.9876 12.738 36.9876C14.2159 36.9801 15.6887 36.8277 17.1358 36.538C18.6343 36.2507 20.0711 35.7111 21.3794 34.9467C21.8575 34.7169 21.9732 34.3322 21.7367 33.8026L20.3513 30.9598C20.1534 30.5301 19.773 30.4302 19.2255 30.66C18.3387 31.0597 17.4134 31.3744 16.465 31.6068C15.4137 31.8716 14.3316 32.004 13.2444 32.0015C12.3113 32.0065 11.3809 31.8915 10.4787 31.6542C8.74887 31.1996 7.34548 29.968 6.7029 28.3418C6.32249 27.465 6.12971 25.9911 6.08602 24.6996H18.0046C18.0046 24.6996 19.6573 24.6896 20.5955 24.4223C23.3817 23.6304 23.685 21.1149 23.685 19.6035C23.685 16.456 22.6466 14.0053 20.9425 12.2417C19.0481 10.2807 16.1411 9.30148 12.2239 9.30148ZM6.2865 20.5153C6.31478 19.696 6.48956 18.8891 6.80314 18.1272C7.09359 17.3852 7.50741 16.6933 8.02918 16.0812C8.53553 15.4867 9.16269 15.0046 9.86953 14.6598C10.6329 14.2976 11.4734 14.1178 12.3216 14.1352C13.2932 14.1003 14.2596 14.2701 15.1567 14.6324C15.8507 14.9321 16.4495 15.4043 16.8942 16.0013C17.3286 16.6083 17.6345 17.2953 17.7913 18.0197C17.966 18.8391 18.0509 19.676 18.0431 20.5153H6.2865Z" fill="white"></path>
<path d="M90.1619 13.4682C89.2083 12.2616 87.9617 11.3024 86.5326 10.6803C84.8619 9.98088 83.0575 9.63864 81.2377 9.68111C80.1865 9.6911 79.1352 9.76604 78.0942 9.90594C76.9967 10.0408 75.912 10.2657 74.8505 10.5729L74.8016 0.902883C74.8016 0.500694 74.7348 0.255883 74.6037 0.15596C74.3724 0.0335543 74.1077 -0.0189052 73.8455 0.00607554H69.8872C69.6122 -0.0189052 69.3371 0.0435466 69.1007 0.183439C68.9233 0.380786 68.8411 0.643084 68.8745 0.905382V34.6244C68.8745 36.1857 70.2496 36.383 70.2496 36.383C86.5326 38.4889 88.8484 34.2621 89.8869 33.0331C90.9715 31.7366 91.7658 30.2327 92.213 28.619C93.1846 25.0517 93.2026 21.3021 92.267 17.7249C91.8531 16.1886 91.136 14.7447 90.1619 13.4707V13.4682ZM86.2961 27.375C86.0185 28.3592 85.5276 29.2785 84.8619 30.0679C84.263 30.7548 83.4919 31.2794 82.6231 31.5917C81.6927 31.9165 80.7082 32.0738 79.7212 32.0613C79.035 32.0613 75.6087 32.2112 74.7888 31.9439V15.4666C75.8092 15.1494 76.8579 14.9321 77.922 14.8196C78.9167 14.7172 79.6853 14.6698 80.2302 14.6698C82.2813 14.6698 83.8954 15.3792 85.0572 16.8131C86.2216 18.2395 86.805 20.4153 86.805 23.3431C86.841 24.7045 86.6688 26.0635 86.2935 27.3775L86.2961 27.375Z" fill="white"></path>
<path d="M128.128 10.7326C126.352 9.87329 123.499 9.41364 115.191 9.29623C114.109 9.28624 114.148 10.1256 114.148 10.1256V13.8877C114.168 14.2724 114.5 14.5697 114.896 14.5597C123.874 14.6171 123.917 14.837 123.917 14.837C124.524 15.0093 125.079 15.3291 125.529 15.7612C125.915 16.1484 126.19 16.6306 126.321 17.1552C126.462 17.7272 126.531 18.3143 126.524 18.9013V19.7507H120.795C118.749 19.7507 117.019 19.9955 115.605 20.4976C114.328 20.9148 113.156 21.5843 112.158 22.4636C111.289 23.243 110.631 24.2172 110.241 25.3014C109.85 26.383 109.655 27.5222 109.657 28.6663C109.652 29.7579 109.824 30.8446 110.169 31.8838C110.518 32.908 111.148 33.8198 111.989 34.5243C113.019 35.3586 114.22 35.9706 115.513 36.3179C116.99 36.7675 118.859 36.9849 121.108 36.9849C121.923 36.9849 122.784 36.9624 123.686 36.9099C124.588 36.8625 125.506 36.77 126.424 36.6376C127.328 36.5077 128.225 36.3229 129.107 36.0881C129.94 35.8682 130.752 35.5835 131.536 35.2387C132.178 34.9389 132.51 34.3894 132.51 33.5925V18.649C132.51 15.7213 131.682 13.493 130.03 11.9692C129.467 11.4596 128.827 11.0424 128.13 10.7301L128.128 10.7326ZM126.467 31.5116C125.994 31.689 125.508 31.8239 125.01 31.9138C124.483 32.0162 123.977 32.1011 123.504 32.1586C123.054 32.226 122.601 32.2685 122.147 32.281C121.722 32.296 121.388 32.3085 121.152 32.3085C119.52 32.3085 118.199 32.0262 117.217 31.4591C116.227 30.8921 115.731 29.9003 115.731 28.4664C115.736 27.4722 115.934 26.6928 116.325 26.1257C116.695 25.5787 117.204 25.134 117.803 24.8317C118.391 24.5345 119.034 24.3496 119.694 24.2872C120.316 24.2222 120.938 24.1872 121.563 24.1847H126.467V31.5091V31.5116Z" fill="white"></path>
<path d="M178.946 13.3087C176.851 10.898 173.777 9.69396 169.721 9.69646C167.999 9.67397 166.287 9.98623 164.691 10.6157C163.2 11.2103 161.866 12.1221 160.781 13.2812C160.095 14.0206 159.514 14.8475 159.054 15.7393C158.758 16.3014 158.036 18.015 157.746 20.6005C157.586 22.0369 157.538 23.8006 157.021 25.9339C156.065 29.8984 152.87 31.2398 150.605 31.6895C149.806 31.8344 148.994 31.9068 148.179 31.9093C147.051 31.9493 145.93 31.727 144.907 31.2623C144.079 30.8526 143.383 30.2306 142.889 29.4687C142.375 28.6493 142.018 27.745 141.838 26.8033C141.632 25.7266 141.53 24.6349 141.535 23.5383C141.535 22.4416 141.653 21.345 141.892 20.2733C142.1 19.2916 142.488 18.3573 143.041 17.5104C143.555 16.7235 144.257 16.064 145.087 15.5919C145.997 15.0923 147.027 14.8425 148.071 14.87C149.019 14.865 149.965 14.9749 150.886 15.1947C151.749 15.4021 152.602 15.6594 153.435 15.9641C153.841 16.134 154.122 16.184 154.281 16.114C154.479 16.0016 154.63 15.8267 154.71 15.6169L155.985 12.6792C156.137 12.4593 156.191 12.1895 156.139 11.9322C156.013 11.7124 155.815 11.5375 155.579 11.4351C154.412 10.8331 153.165 10.3884 151.875 10.1161C150.541 9.83385 149.179 9.69146 147.811 9.69396C146.048 9.66648 144.3 9.99872 142.676 10.6657C141.18 11.2977 139.854 12.2495 138.795 13.4536C137.679 14.7401 136.836 16.2289 136.314 17.8352C135.715 19.6788 135.422 21.6023 135.446 23.5358C135.446 27.9873 136.458 31.3423 138.486 33.603C140.525 35.8588 143.45 36.9829 147.261 36.9804C147.503 36.9804 147.763 36.9704 148.014 36.9654V36.9704C150.032 36.9929 152.037 36.6956 153.957 36.0936C154.227 36.0087 154.484 35.9062 154.744 35.8113C154.803 35.7838 154.859 35.7638 154.918 35.7414C155.17 35.6339 155.414 35.5265 155.661 35.4091C155.733 35.3766 155.81 35.3342 155.882 35.3017C156.021 35.2318 156.162 35.1668 156.306 35.0944C156.365 35.0619 156.422 35.0244 156.476 34.9819C158.668 33.7429 160.028 31.9793 161.172 30.3705C163.205 27.4952 163.344 22.5016 163.344 22.5016L163.349 22.5066C163.382 21.5898 163.506 20.6755 163.717 19.7812C163.932 18.7994 164.341 17.8652 164.914 17.0283C165.441 16.2739 166.14 15.6469 166.96 15.2022C167.837 14.7376 168.821 14.5027 169.818 14.5227C170.88 14.4828 171.931 14.7276 172.859 15.2272C173.656 15.6943 174.311 16.3588 174.751 17.1582C175.234 18.0425 175.563 18.9993 175.725 19.991C175.915 21.1176 176.008 22.2568 176.005 23.4009C176.01 24.52 175.9 25.6367 175.674 26.7358C175.478 27.7126 175.116 28.6518 174.602 29.5137C173.581 31.2323 171.661 32.2565 169.621 32.1691C169.621 32.1691 166.865 32.2765 164.688 30.7377V30.7427C164.418 30.5279 164.017 30.5654 163.796 30.8277C163.768 30.8626 163.742 30.9001 163.722 30.9401L163.717 30.9351C163.215 31.8294 162.627 32.6762 161.958 33.4631H161.969C161.717 33.7004 161.709 34.0901 161.953 34.3349L161.958 34.3399C162.925 35.3916 165.135 36.9954 169.561 36.9954C173.718 36.9954 176.843 35.8088 178.941 33.4331C181.035 31.06 182.084 27.6676 182.084 23.2485C182.084 19.0318 181.038 15.7193 178.941 13.3137L178.946 13.3087Z" fill="white"></path>
<path d="M111.266 13.9056V10.1235C111.266 9.29416 110.344 9.30665 110.326 9.30665C105.938 9.38159 103.07 9.56395 101.201 9.75631C100.304 9.80876 99.412 9.94366 98.5407 10.1585C98.2605 10.201 97.9906 10.2934 97.7439 10.4308C97.3069 10.6007 96.9265 10.8829 96.6438 11.2477C96.1863 11.8947 95.9575 12.8889 95.9575 14.2129V35.5939C95.9575 35.9561 96.0346 36.1859 96.1888 36.2883C96.4176 36.4057 96.6746 36.4582 96.9317 36.4382H100.867C101.139 36.4607 101.412 36.4082 101.653 36.2883C101.808 36.1859 101.89 35.9561 101.89 35.5939V14.8574C101.89 14.8574 102.435 14.6325 110.308 14.5701C111.269 14.5701 111.269 13.9081 111.269 13.9081L111.266 13.9056Z" fill="white"></path>
<path d="M68.6391 57.9263H73.8388C75.2319 57.8389 76.4323 56.9471 76.8846 55.6656L77.6198 53.4048C78.0259 52.1608 77.3165 51.144 76.0493 51.144H70.8495C69.459 51.2315 68.2561 52.1233 67.8037 53.4048L67.0686 55.6656C66.6625 56.9096 67.3719 57.9263 68.6391 57.9263Z" fill="white"></path>
<path d="M92.8045 51.1418L89.5171 61.2565C89.697 60.8743 89.5248 60.4222 89.1341 60.2473C89.0184 60.1974 88.8951 60.1724 88.7691 60.1799H80.048C78.6575 60.2673 77.4546 61.1591 77.0022 62.4406L73.3215 73.7394C72.9154 74.9835 73.6248 76.0002 74.8997 76.0002H94.5446L102.636 51.1493L92.8045 51.1418ZM89.1418 62.3882L85.4328 73.7844C85.2169 74.3939 84.6437 74.8186 83.9806 74.861H83.8701C83.4383 74.881 83.0707 74.5563 83.0501 74.1366C83.045 74.0142 83.0681 73.8943 83.1195 73.7819L86.8285 62.3832C87.0444 61.7736 87.6176 61.349 88.2807 61.3065H88.3887C88.8179 61.2815 89.1855 61.5988 89.2112 62.016C89.2189 62.1434 89.1932 62.2708 89.1367 62.3857L89.1418 62.3882Z" fill="white"></path>
<path d="M109.06 68.6483H121.194L123.217 62.4331C123.623 61.1891 122.914 60.1724 121.641 60.1724H104.307C102.914 60.2598 101.711 61.1516 101.254 62.4331L97.5754 73.7319C97.1693 74.9759 97.8787 75.9926 99.1536 75.9926H118.799L119.166 74.861H109.345C108.073 74.861 107.368 73.8443 107.767 72.6003L109.062 68.6483H109.06ZM111.106 62.3882C111.321 61.7786 111.895 61.354 112.558 61.3115H112.668C113.1 61.2915 113.468 61.6138 113.488 62.0334C113.493 62.1558 113.47 62.2782 113.419 62.3882L111.748 67.5242H109.437L111.108 62.3882H111.106Z" fill="white"></path>
<path d="M134.989 63.5647C135.442 62.2832 136.642 61.3914 138.035 61.304H147.856L148.224 60.1724H128.579C127.186 60.2598 125.983 61.1516 125.525 62.4331L121.847 73.7319C121.441 74.9759 122.151 75.9926 123.426 75.9926H143.07L143.438 74.861H133.625C132.352 74.861 131.648 73.8443 132.046 72.6003L134.989 63.5622V63.5647Z" fill="white"></path>
<path d="M65.0717 51.1418L59.9259 66.9571L50.0482 51.1418H41.9594L33.8706 75.9927H35.0272L40.173 60.1774L50.0508 75.9927H58.1396L66.2284 51.1418H65.0743H65.0717Z" fill="white"></path>
<path d="M65.6004 60.1799L60.4546 75.9952H70.2758L75.4216 60.1799H65.6004Z" fill="white"></path>
<path d="M62.6353 13.0686C61.6405 11.9644 60.3862 11.1101 58.9803 10.573C57.4792 9.97347 55.6774 9.6812 53.5595 9.6812C48.6167 9.6812 46.2469 11.225 44.9386 12.1218C43.8025 11.2725 42.5071 10.6455 41.1243 10.2782C39.505 9.84607 37.8317 9.64622 36.1558 9.6787C35.7497 9.6787 35.2536 9.69369 34.6702 9.72616C34.0867 9.75864 33.4981 9.79111 32.9069 9.82858C32.3081 9.86106 31.758 9.90852 31.2465 9.97847C30.2467 10.0609 29.2699 10.3132 28.3601 10.7254C27.9359 10.9202 27.5735 11.2225 27.3088 11.6022C27.062 11.9719 26.8975 12.3866 26.8256 12.8213C26.7382 13.3484 26.6945 13.8805 26.6996 14.4125V35.5912C26.6996 35.9534 26.7767 36.1832 26.931 36.2857C27.1597 36.4031 27.4167 36.4555 27.6738 36.4356H31.6603C31.9277 36.4605 32.195 36.4081 32.4289 36.2857C32.5677 36.1832 32.6371 35.9534 32.6371 35.5912V14.9646C32.8735 14.9321 33.1691 14.8897 33.5341 14.8422C33.8914 14.7948 34.2589 14.7623 34.6342 14.7473C35.0069 14.7248 35.3642 14.7148 35.706 14.6948C36.0479 14.6798 36.3229 14.6723 36.526 14.6723C37.6055 14.6274 38.685 14.8147 39.6823 15.2219C40.5177 15.5367 41.2451 16.0713 41.7823 16.7657C42.2963 17.4802 42.6433 18.2946 42.8001 19.1539C42.998 20.1906 43.0906 21.2423 43.0803 22.2965V35.6012C43.0803 35.9634 43.1574 36.1932 43.3065 36.2957C43.5326 36.4131 43.7871 36.4655 44.0441 36.4455H47.9973C48.2697 36.468 48.5396 36.4156 48.7838 36.2957C48.938 36.1932 49.0151 35.9634 49.0151 35.6012V22.3889C49.0203 21.2223 48.9509 20.0582 48.8069 18.8991C48.6887 17.9598 48.4497 17.038 48.0924 16.1587C48.6759 15.7041 50.0818 14.7098 52.7807 14.7098C55.243 14.7098 56.9729 15.3593 57.9701 16.6558C58.9648 17.9498 59.4609 19.9408 59.4609 22.6337V35.5962C59.4609 35.9584 59.538 36.1882 59.6922 36.2907C59.921 36.4081 60.178 36.4605 60.4351 36.4406H64.3702C64.6427 36.463 64.9177 36.4106 65.1619 36.2907C65.3161 36.1882 65.3932 35.9584 65.3932 35.5962V21.8918C65.4086 20.2181 65.185 18.5494 64.7275 16.9331C64.324 15.5167 63.612 14.2002 62.643 13.0711L62.6353 13.0686Z" fill="white"></path>
<path d="M12.2239 9.30148C10.5404 9.28399 8.86968 9.59625 7.31463 10.2208C5.8367 10.8228 4.51555 11.7446 3.45658 12.9137C2.33078 14.1827 1.46973 15.6566 0.927388 17.2478C0.284808 19.1339 -0.0287708 21.1124 0.00207299 23.1008C0.00207299 27.7872 1.09189 31.5843 3.27666 33.7501C5.45886 35.9084 8.61264 36.9876 12.738 36.9876C14.2159 36.9801 15.6887 36.8277 17.1358 36.538C18.6343 36.2507 20.0711 35.7111 21.3794 34.9467C21.8575 34.7169 21.9732 34.3322 21.7367 33.8026L20.3513 30.9598C20.1534 30.5301 19.773 30.4302 19.2255 30.66C18.3387 31.0597 17.4134 31.3744 16.465 31.6068C15.4137 31.8716 14.3316 32.004 13.2444 32.0015C12.3113 32.0065 11.3809 31.8915 10.4787 31.6542C8.74887 31.1996 7.34548 29.968 6.7029 28.3418C6.32249 27.465 6.12971 25.9911 6.08602 24.6996H18.0046C18.0046 24.6996 19.6573 24.6896 20.5955 24.4223C23.3817 23.6304 23.685 21.1149 23.685 19.6035C23.685 16.456 22.6466 14.0053 20.9425 12.2417C19.0481 10.2807 16.1411 9.30148 12.2239 9.30148ZM6.2865 20.5153C6.31478 19.696 6.48956 18.8891 6.80314 18.1272C7.09359 17.3852 7.50741 16.6933 8.02918 16.0812C8.53553 15.4867 9.16269 15.0046 9.86953 14.6598C10.6329 14.2976 11.4734 14.1178 12.3216 14.1352C13.2932 14.1003 14.2596 14.2701 15.1567 14.6324C15.8507 14.9321 16.4495 15.4043 16.8942 16.0013C17.3286 16.6083 17.6345 17.2953 17.7913 18.0197C17.966 18.8391 18.0509 19.676 18.0431 20.5153H6.2865Z" fill="white"></path>
<path d="M90.1619 13.4682C89.2083 12.2616 87.9617 11.3024 86.5326 10.6803C84.8619 9.98088 83.0575 9.63864 81.2377 9.68111C80.1865 9.6911 79.1352 9.76604 78.0942 9.90594C76.9967 10.0408 75.912 10.2657 74.8505 10.5729L74.8016 0.902883C74.8016 0.500694 74.7348 0.255883 74.6037 0.15596C74.3724 0.0335543 74.1077 -0.0189052 73.8455 0.00607554H69.8872C69.6122 -0.0189052 69.3371 0.0435466 69.1007 0.183439C68.9233 0.380786 68.8411 0.643084 68.8745 0.905382V34.6244C68.8745 36.1857 70.2496 36.383 70.2496 36.383C86.5326 38.4889 88.8484 34.2621 89.8869 33.0331C90.9715 31.7366 91.7658 30.2327 92.213 28.619C93.1846 25.0517 93.2026 21.3021 92.267 17.7249C91.8531 16.1886 91.136 14.7447 90.1619 13.4707V13.4682ZM86.2961 27.375C86.0185 28.3592 85.5276 29.2785 84.8619 30.0679C84.263 30.7548 83.4919 31.2794 82.6231 31.5917C81.6927 31.9165 80.7082 32.0738 79.7212 32.0613C79.035 32.0613 75.6087 32.2112 74.7888 31.9439V15.4666C75.8092 15.1494 76.8579 14.9321 77.922 14.8196C78.9167 14.7172 79.6853 14.6698 80.2302 14.6698C82.2813 14.6698 83.8954 15.3792 85.0572 16.8131C86.2216 18.2395 86.805 20.4153 86.805 23.3431C86.841 24.7045 86.6688 26.0635 86.2935 27.3775L86.2961 27.375Z" fill="white"></path>
<path d="M128.128 10.7326C126.352 9.87329 123.499 9.41364 115.191 9.29623C114.109 9.28624 114.148 10.1256 114.148 10.1256V13.8877C114.168 14.2724 114.5 14.5697 114.896 14.5597C123.874 14.6171 123.917 14.837 123.917 14.837C124.524 15.0093 125.079 15.3291 125.529 15.7612C125.915 16.1484 126.19 16.6306 126.321 17.1552C126.462 17.7272 126.531 18.3143 126.524 18.9013V19.7507H120.795C118.749 19.7507 117.019 19.9955 115.605 20.4976C114.328 20.9148 113.156 21.5843 112.158 22.4636C111.289 23.243 110.631 24.2172 110.241 25.3014C109.85 26.383 109.655 27.5222 109.657 28.6663C109.652 29.7579 109.824 30.8446 110.169 31.8838C110.518 32.908 111.148 33.8198 111.989 34.5243C113.019 35.3586 114.22 35.9706 115.513 36.3179C116.99 36.7675 118.859 36.9849 121.108 36.9849C121.923 36.9849 122.784 36.9624 123.686 36.9099C124.588 36.8625 125.506 36.77 126.424 36.6376C127.328 36.5077 128.225 36.3229 129.107 36.0881C129.94 35.8682 130.752 35.5835 131.536 35.2387C132.178 34.9389 132.51 34.3894 132.51 33.5925V18.649C132.51 15.7213 131.682 13.493 130.03 11.9692C129.467 11.4596 128.827 11.0424 128.13 10.7301L128.128 10.7326ZM126.467 31.5116C125.994 31.689 125.508 31.8239 125.01 31.9138C124.483 32.0162 123.977 32.1011 123.504 32.1586C123.054 32.226 122.601 32.2685 122.147 32.281C121.722 32.296 121.388 32.3085 121.152 32.3085C119.52 32.3085 118.199 32.0262 117.217 31.4591C116.227 30.8921 115.731 29.9003 115.731 28.4664C115.736 27.4722 115.934 26.6928 116.325 26.1257C116.695 25.5787 117.204 25.134 117.803 24.8317C118.391 24.5345 119.034 24.3496 119.694 24.2872C120.316 24.2222 120.938 24.1872 121.563 24.1847H126.467V31.5091V31.5116Z" fill="white"></path>
<path d="M178.946 13.3087C176.851 10.898 173.777 9.69396 169.721 9.69646C167.999 9.67397 166.287 9.98623 164.691 10.6157C163.2 11.2103 161.866 12.1221 160.781 13.2812C160.095 14.0206 159.514 14.8475 159.054 15.7393C158.758 16.3014 158.036 18.015 157.746 20.6005C157.586 22.0369 157.538 23.8006 157.021 25.9339C156.065 29.8984 152.87 31.2398 150.605 31.6895C149.806 31.8344 148.994 31.9068 148.179 31.9093C147.051 31.9493 145.93 31.727 144.907 31.2623C144.079 30.8526 143.383 30.2306 142.889 29.4687C142.375 28.6493 142.018 27.745 141.838 26.8033C141.632 25.7266 141.53 24.6349 141.535 23.5383C141.535 22.4416 141.653 21.345 141.892 20.2733C142.1 19.2916 142.488 18.3573 143.041 17.5104C143.555 16.7235 144.257 16.064 145.087 15.5919C145.997 15.0923 147.027 14.8425 148.071 14.87C149.019 14.865 149.965 14.9749 150.886 15.1947C151.749 15.4021 152.602 15.6594 153.435 15.9641C153.841 16.134 154.122 16.184 154.281 16.114C154.479 16.0016 154.63 15.8267 154.71 15.6169L155.985 12.6792C156.137 12.4593 156.191 12.1895 156.139 11.9322C156.013 11.7124 155.815 11.5375 155.579 11.4351C154.412 10.8331 153.165 10.3884 151.875 10.1161C150.541 9.83385 149.179 9.69146 147.811 9.69396C146.048 9.66648 144.3 9.99872 142.676 10.6657C141.18 11.2977 139.854 12.2495 138.795 13.4536C137.679 14.7401 136.836 16.2289 136.314 17.8352C135.715 19.6788 135.422 21.6023 135.446 23.5358C135.446 27.9873 136.458 31.3423 138.486 33.603C140.525 35.8588 143.45 36.9829 147.261 36.9804C147.503 36.9804 147.763 36.9704 148.014 36.9654V36.9704C150.032 36.9929 152.037 36.6956 153.957 36.0936C154.227 36.0087 154.484 35.9062 154.744 35.8113C154.803 35.7838 154.859 35.7638 154.918 35.7414C155.17 35.6339 155.414 35.5265 155.661 35.4091C155.733 35.3766 155.81 35.3342 155.882 35.3017C156.021 35.2318 156.162 35.1668 156.306 35.0944C156.365 35.0619 156.422 35.0244 156.476 34.9819C158.668 33.7429 160.028 31.9793 161.172 30.3705C163.205 27.4952 163.344 22.5016 163.344 22.5016L163.349 22.5066C163.382 21.5898 163.506 20.6755 163.717 19.7812C163.932 18.7994 164.341 17.8652 164.914 17.0283C165.441 16.2739 166.14 15.6469 166.96 15.2022C167.837 14.7376 168.821 14.5027 169.818 14.5227C170.88 14.4828 171.931 14.7276 172.859 15.2272C173.656 15.6943 174.311 16.3588 174.751 17.1582C175.234 18.0425 175.563 18.9993 175.725 19.991C175.915 21.1176 176.008 22.2568 176.005 23.4009C176.01 24.52 175.9 25.6367 175.674 26.7358C175.478 27.7126 175.116 28.6518 174.602 29.5137C173.581 31.2323 171.661 32.2565 169.621 32.1691C169.621 32.1691 166.865 32.2765 164.688 30.7377V30.7427C164.418 30.5279 164.017 30.5654 163.796 30.8277C163.768 30.8626 163.742 30.9001 163.722 30.9401L163.717 30.9351C163.215 31.8294 162.627 32.6762 161.958 33.4631H161.969C161.717 33.7004 161.709 34.0901 161.953 34.3349L161.958 34.3399C162.925 35.3916 165.135 36.9954 169.561 36.9954C173.718 36.9954 176.843 35.8088 178.941 33.4331C181.035 31.06 182.084 27.6676 182.084 23.2485C182.084 19.0318 181.038 15.7193 178.941 13.3137L178.946 13.3087Z" fill="white"></path>
<path d="M111.266 13.9056V10.1235C111.266 9.29416 110.344 9.30665 110.326 9.30665C105.938 9.38159 103.07 9.56395 101.201 9.75631C100.304 9.80876 99.412 9.94366 98.5407 10.1585C98.2605 10.201 97.9906 10.2934 97.7439 10.4308C97.3069 10.6007 96.9265 10.8829 96.6438 11.2477C96.1863 11.8947 95.9575 12.8889 95.9575 14.2129V35.5939C95.9575 35.9561 96.0346 36.1859 96.1888 36.2883C96.4176 36.4057 96.6746 36.4582 96.9317 36.4382H100.867C101.139 36.4607 101.412 36.4082 101.653 36.2883C101.808 36.1859 101.89 35.9561 101.89 35.5939V14.8574C101.89 14.8574 102.435 14.6325 110.308 14.5701C111.269 14.5701 111.269 13.9081 111.269 13.9081L111.266 13.9056Z" fill="white"></path>
<path d="M68.6391 57.9263H73.8388C75.2319 57.8389 76.4323 56.9471 76.8846 55.6656L77.6198 53.4048C78.0259 52.1608 77.3165 51.144 76.0493 51.144H70.8495C69.459 51.2315 68.2561 52.1233 67.8037 53.4048L67.0686 55.6656C66.6625 56.9096 67.3719 57.9263 68.6391 57.9263Z" fill="white"></path>
<path d="M92.8045 51.1418L89.5171 61.2565C89.697 60.8743 89.5248 60.4222 89.1341 60.2473C89.0184 60.1974 88.8951 60.1724 88.7691 60.1799H80.048C78.6575 60.2673 77.4546 61.1591 77.0022 62.4406L73.3215 73.7394C72.9154 74.9835 73.6248 76.0002 74.8997 76.0002H94.5446L102.636 51.1493L92.8045 51.1418ZM89.1418 62.3882L85.4328 73.7844C85.2169 74.3939 84.6437 74.8186 83.9806 74.861H83.8701C83.4383 74.881 83.0707 74.5563 83.0501 74.1366C83.045 74.0142 83.0681 73.8943 83.1195 73.7819L86.8285 62.3832C87.0444 61.7736 87.6176 61.349 88.2807 61.3065H88.3887C88.8179 61.2815 89.1855 61.5988 89.2112 62.016C89.2189 62.1434 89.1932 62.2708 89.1367 62.3857L89.1418 62.3882Z" fill="white"></path>
<path d="M109.06 68.6483H121.194L123.217 62.4331C123.623 61.1891 122.914 60.1724 121.641 60.1724H104.307C102.914 60.2598 101.711 61.1516 101.254 62.4331L97.5754 73.7319C97.1693 74.9759 97.8787 75.9926 99.1536 75.9926H118.799L119.166 74.861H109.345C108.073 74.861 107.368 73.8443 107.767 72.6003L109.062 68.6483H109.06ZM111.106 62.3882C111.321 61.7786 111.895 61.354 112.558 61.3115H112.668C113.1 61.2915 113.468 61.6138 113.488 62.0334C113.493 62.1558 113.47 62.2782 113.419 62.3882L111.748 67.5242H109.437L111.108 62.3882H111.106Z" fill="white"></path>
<path d="M134.989 63.5647C135.442 62.2832 136.642 61.3914 138.035 61.304H147.856L148.224 60.1724H128.579C127.186 60.2598 125.983 61.1516 125.525 62.4331L121.847 73.7319C121.441 74.9759 122.151 75.9926 123.426 75.9926H143.07L143.438 74.861H133.625C132.352 74.861 131.648 73.8443 132.046 72.6003L134.989 63.5622V63.5647Z" fill="white"></path>
<path d="M65.0717 51.1418L59.9259 66.9571L50.0482 51.1418H41.9594L33.8706 75.9927H35.0272L40.173 60.1774L50.0508 75.9927H58.1396L66.2284 51.1418H65.0743H65.0717Z" fill="white"></path>
<path d="M65.6004 60.1799L60.4546 75.9952H70.2758L75.4216 60.1799H65.6004Z" fill="white"></path>
</svg>